# xmcd
#
# Track frame offsets:
#	150
#	8245
#	17959
#	26070
#	48343
#	60986
#	64590
#	66274
#	79826
#	81637
#	89505
#	93594
#	99438
#	103212
#	105059
#	121395
#	123422
#	128068
#	130704
#	133824
#	136982
#	139403
#	141655
#	152947
#
# Disc length: 2246 seconds
#
# Revision: 1
# Processed by: cddbd v1.5.2PL0 Copyright (c) Steve Scherf et al.
# Submitted via: EZCDAudioConverter 2.1.7.1
#
DISCID=5d08c418
DTITLE=V/A - Let's Go To Prison
DYEAR=2006
DGENRE=
TTITLE0=Naked Trucker Band - Let's Go To Prison
TTITLE1=Rahzel - Main Title
TTITLE2=Rahzel - Bus Is Not For Sissies
TTITLE3=Technotronic - Move This (Shake That Body)
TTITLE4=Rahzel - Barry's Love Theme
TTITLE5=Rahzel - Kidnapping
TTITLE6=Rahzel - Rahzel Interlude
TTITLE7=Blues Brothers - Rubber Biscuit
TTITLE8=Rahzel - Funeral Is For Sissies
TTITLE9=Alan Elliott - Escape Montage
TTITLE10=Rahzel - Rahzel In The Park
TTITLE11=Alan Elliott - Busted
TTITLE12=Alan Elliott - King Of The Crapper
TTITLE13=Rahzel - From Behind
TTITLE14=Billy Squier - The Stroke
TTITLE15=Rahzel - Fresca
TTITLE16=Alan Elliott - Yearning For Nelson
TTITLE17=Rahzel - The Mole
TTITLE18=Alan Elliott - Meat The Press
TTITLE19=Alan Elliott - The Hole
TTITLE20=Alan Elliott - Lynard Killing
TTITLE21=Alan Elliott - Penpal Is For Sissies
TTITLE22=Alan Elliott - Mozart Is For Sissies
TTITLE23=Chuck Mangione - Feels So Good
EXTD=
EXTT0=
EXTT1=
EXTT2=
EXTT3=
EXTT4=
EXTT5=
EXTT6=
EXTT7=
EXTT8=
EXTT9=
EXTT10=
EXTT11=
EXTT12=
EXTT13=
EXTT14=
EXTT15=
EXTT16=
EXTT17=
EXTT18=
EXTT19=
EXTT20=
EXTT21=
EXTT22=
EXTT23=
PLAYORDER=
